<svg id="visual" viewBox="0 0 960 300" width="960" height="300" xmlns="http://www.w3.org/2000/svg" xmlns:xlink="http://www.w3.org/1999/xlink" version="1.1"><rect x="0" y="0" width="960" height="300" fill="#ebf5ff"></rect><path d="M0 197L26.7 202.5C53.3 208 106.7 219 160 220C213.3 221 266.7 212 320 213C373.3 214 426.7 225 480 225.8C533.3 226.7 586.7 217.3 640 215.2C693.3 213 746.7 218 800 222.5C853.3 227 906.7 231 933.3 233L960 235L960 0L933.3 0C906.7 0 853.3 0 800 0C746.7 0 693.3 0 640 0C586.7 0 533.3 0 480 0C426.7 0 373.3 0 320 0C266.7 0 213.3 0 160 0C106.7 0 53.3 0 26.7 0L0 0Z" fill="#8bbff7"></path><path d="M0 103L26.7 112.5C53.3 122 106.7 141 160 141.3C213.3 141.7 266.7 123.3 320 115C373.3 106.7 426.7 108.3 480 116C533.3 123.7 586.7 137.3 640 147.5C693.3 157.7 746.7 164.3 800 160.2C853.3 156 906.7 141 933.3 133.5L960 126L960 0L933.3 0C906.7 0 853.3 0 800 0C746.7 0 693.3 0 640 0C586.7 0 533.3 0 480 0C426.7 0 373.3 0 320 0C266.7 0 213.3 0 160 0C106.7 0 53.3 0 26.7 0L0 0Z" fill="#4f9ffe"></path><path d="M0 77L26.7 80.8C53.3 84.7 106.7 92.3 160 90.7C213.3 89 266.7 78 320 73.8C373.3 69.7 426.7 72.3 480 74.3C533.3 76.3 586.7 77.7 640 73.3C693.3 69 746.7 59 800 58.8C853.3 58.7 906.7 68.3 933.3 73.2L960 78L960 0L933.3 0C906.7 0 853.3 0 800 0C746.7 0 693.3 0 640 0C586.7 0 533.3 0 480 0C426.7 0 373.3 0 320 0C266.7 0 213.3 0 160 0C106.7 0 53.3 0 26.7 0L0 0Z" fill="#007bff"></path></svg>